<svg xmlns="http://www.w3.org/2000/svg" width="1200" height="630" viewBox="0 0 1200 630" role="img" aria-labelledby="title desc">
  <title id="title">NEXT SPOT — 사람들이 몰리기 전에, 다음 동네를 발견하세요</title>
  <desc id="desc">변화 레이더와 서울 지도 위의 다음 핫플 후보 마커</desc>
  <defs><linearGradient id="bg" x1="0" y1="0" x2="1" y2="1"><stop stop-color="#f7f9ff"/><stop offset="1" stop-color="#eaf1ff"/></linearGradient><filter id="shadow"><feDropShadow dx="0" dy="18" stdDeviation="18" flood-color="#315fbd" flood-opacity=".16"/></filter></defs>
  <rect width="1200" height="630" rx="28" fill="url(#bg)"/>
  <circle cx="1040" cy="90" r="180" fill="#dbe7ff" opacity=".65"/>
  <text x="70" y="76" fill="#4268f5" font-family="Arial,sans-serif" font-size="18" font-weight="700" letter-spacing="4">NEXT SPOT · CHANGE RADAR</text>
  <text x="70" y="170" fill="#172b4d" font-family="Arial,sans-serif" font-size="62" font-weight="800">사람들이 몰리기 전에,</text>
  <text x="70" y="240" fill="#4268f5" font-family="Arial,sans-serif" font-size="68" font-weight="800">다음 동네를 발견하세요.</text>
  <text x="74" y="282" fill="#637083" font-family="Arial,sans-serif" font-size="19">신규 설치 · 생활인구 · 상권 순증으로 아직 과밀하지 않은 변화를 포착합니다.</text>
  <g filter="url(#shadow)"><rect x="70" y="345" width="350" height="180" rx="20" fill="#172b4d"/><text x="98" y="386" fill="#9dbafa" font-family="Arial,sans-serif" font-size="14" font-weight="700" letter-spacing="2">NEXT SPOT INDEX</text><text x="98" y="430" fill="white" font-family="Arial,sans-serif" font-size="28" font-weight="800">변화가 빠르지만</text><text x="98" y="465" fill="white" font-family="Arial,sans-serif" font-size="28" font-weight="800">아직 과밀하지 않은 곳</text><circle cx="355" cy="470" r="23" fill="#4268f5"/><circle cx="355" cy="470" r="38" fill="none" stroke="#7fa0ff" opacity=".45"/><text x="355" y="478" text-anchor="middle" fill="white" font-family="Arial,sans-serif" font-size="16" font-weight="800">64</text></g>
  <g transform="translate(500 320)"><path d="M80 45 220 5 380 30 520 0 660 75 690 190 630 245 660 330 490 365 330 335 180 390 40 300 70 205 5 130Z" fill="#e3e8ec" stroke="#cbd3da" stroke-width="3"/><path d="M35 230 C150 190 210 220 305 170 S465 155 560 110 S650 115 700 80" fill="none" stroke="#8dbaf6" stroke-width="22" stroke-linecap="round"/><path d="M35 230 C150 190 210 220 305 170 S465 155 560 110 S650 115 700 80" fill="none" stroke="#dbe8ff" stroke-width="5" stroke-linecap="round"/>
  <g><circle cx="210" cy="130" r="31" fill="#4268f5" stroke="white" stroke-width="5"/><text x="210" y="139" text-anchor="middle" fill="white" font-family="Arial" font-size="19" font-weight="800">63</text><text x="250" y="136" fill="#1d4ed8" font-family="Arial" font-size="16" font-weight="700">연희동</text></g><g><circle cx="450" cy="260" r="26" fill="white" stroke="#4268f5" stroke-width="4"/><text x="450" y="268" text-anchor="middle" fill="#4268f5" font-family="Arial" font-size="16" font-weight="800">50</text><text x="485" y="264" fill="#536b9f" font-family="Arial" font-size="15" font-weight="700">망원동</text></g><g><circle cx="570" cy="180" r="30" fill="#4268f5" stroke="white" stroke-width="5"/><text x="570" y="188" text-anchor="middle" fill="white" font-family="Arial" font-size="18" font-weight="800">64</text><text x="610" y="186" fill="#1d4ed8" font-family="Arial" font-size="15" font-weight="700">문래동</text></g></g>
  <text x="1040" y="590" text-anchor="end" fill="#738094" font-family="Arial,sans-serif" font-size="13">AJD regional signals · explainable heuristic MVP</text>
</svg>
